/* XPM */
static char * weekender_32x32_xpm[] = {
"32 32 89 1",
" 	c None",
".	c #E7E49F",
"+	c #E7E4A0",
"@	c #E7E4A1",
"#	c #E8E5A2",
"$	c #E8E5A3",
"%	c #E8E5A4",
"&	c #E8E6A4",
"*	c #E9E6A5",
"=	c #E9E6A6",
"-	c #E9E7A7",
";	c #E9E7A8",
">	c #EAE7A9",
",	c #EAE8A9",
"'	c #EAE8AA",
")	c #EBE8AB",
"!	c #EBE9AC",
"~	c #EBE9AD",
"{	c #EBE9AE",
"]	c #ECE9AE",
"^	c #ECEAAF",
"/	c #ECEAB0",
"(	c #ECEAB1",
"_	c #EDEBB2",
":	c #EDEBB3",
"<	c #EDECB4",
"[	c #EEECB5",
"}	c #EEECB6",
"|	c #E7E5A1",
"1	c #E8E6A5",
"2	c #EAE7A8",
"3	c #ECEBB1",
"4	c #EDEBB4",
"5	c #EEECB4",
"6	c #EEEDB7",
"7	c #EAE8AB",
"8	c #EDEBB1",
"9	c #EFEDB8",
"0	c #E7E5A2",
"a	c #EBE8AC",
"b	c #EEEDB6",
"c	c #EFEEB9",
"d	c #EFEEBA",
"e	c #EFEDB9",
"f	c #F0EEBB",
"g	c #000000",
"h	c #E5D529",
"i	c #EFEDB7",
"j	c #F0EFBE",
"k	c #F0EFBC",
"l	c #F0EEBC",
"m	c #F0EFBD",
"n	c #F1F0BE",
"o	c #F2F1C3",
"p	c #F1EFBE",
"q	c #F1F0BF",
"r	c #F1F0C0",
"s	c #F3F2C4",
"t	c #F2F1C1",
"u	c #F2F1C2",
"v	c #F2F2C4",
"w	c #F3F2C5",
"x	c #F1F0C1",
"y	c #F3F2C6",
"z	c #F3F3C6",
"A	c #ECEAAE",
"B	c #F3F3C7",
"C	c #F4F3C8",
"D	c #F4F3C9",
"E	c #F4F3C7",
"F	c #F4F4CA",
"G	c #F4F4C9",
"H	c #F5F4CB",
"I	c #F5F5CC",
"J	c #F5F4CA",
"K	c #F5F5CD",
"L	c #EFEEBB",
"M	c #F6F5CE",
"N	c #F6F6CF",
"O	c #F6F5CD",
"P	c #F6F6D0",
"Q	c #F6F6CE",
"R	c #F7F6D1",
"S	c #F7F7D1",
"T	c #F7F7D2",
"U	c #F7F6D0",
"V	c #F7F7D3",
"W	c #F7F7D4",
"X	c #F2F0C1",
".....+@#$%&*=-;>,')!~{]^/(_::<[}",
"...++|#$%1*=-2>'')!~{^^/3_:45[}6",
"..+@|#$&*==-2>'7)!~{^//8_:<[[}69",
".+@0#$&*=--2,'7a!~]^/(8_:<[}b69c",
"+@#$$&*=-;2,')!~{]^/(_::<[}699cd",
"|#$%1*=-2>'')!~{^^/(_:45[}69ecdf",
"gggggg-2>'7)!~{^//8_:<[[}6gggggg",
"ggggggh>'7a!~]^/(8_:<[}b69gggggg",
"gghhggh'7!~~]^/(__:<[}6i9cgghhgg",
"ggh;ggh)!~{^^/(_:45[}69ecdgghjgg",
"ggggggh!~{^//8_:<[[}69eddfgggggg",
"ggggggh~{^/(8_:<[}b69edffkgggggg",
"2hggggh]^/(__:ggggi9cdflkmgggghh",
",'ggggh^/(_::<gggghcdfkmjnggggho",
"')!hhhh/3_:4gg}hhhggfkmpqqrhhhhs",
"a!~{^/(8_:<[ggh9edgghmpqrrtuovww",
"~~]^gg__gg[}6hhcdflhhpggxtggswyz",
"{A^/ggh:ggh699cdfkmmnqgghugghyBC",
"^^/3_hggggggggggggggggggggshhBCD",
"/(8_:<gggggggggggggggggggghyECDF",
"(__:<[}hhhgghhhhhhhhgghhhhhECGFH",
"_::<[}699cgghmmpqrxugghwyBECGFHI",
":45[}69ecdgghjnqrtuogghyBCDGJHIK",
"<[[}69edLfgghqrrtuovgghECDFJHIKM",
"[}669cdflkgghrxtuovwgghCGFHHIKMN",
"}699cdfkmmgghxuuoswygghGFHIIOMNP",
"69ecdfkmjnqhhuooswyBChhFHIKOQNPR",
"9eddfkmpqqrtuovswyBCDFJHIKMNNPST",
"cdflkmpqrxtuovwyzECDFHHIKMNPUSTV",
"dfkmmpqrxuuoswyBECGFHIIKMNPRSTVW",
"fkmjnqrXuooswyBCCGFHIKOQNPRTTVWW",
"kmpqqrtuovswyBCDGJHIKMQNPSTVWWWW"};
