/* XPM */
static char * weekender_grey_16x16_xpm[] = {
"16 16 4 1",
" 	c None",
".	c #FFFFFF",
"+	c #000000",
"@	c #D8D8D8",
"................",
"................",
"................",
"+++..........+++",
"+@+@.........+@+",
"+++@.........+++",
".++@...++....++@",
"..@@..+.@+....@@",
"..+.+..@..@+.+..",
"...++++++++++.@.",
"....@+@@@@+@@@..",
".....+@...+@....",
".....+@...+@....",
"......@....@....",
"................",
"................"};
