/* XPM */
static char * weekender_16x16_xpm[] = {
"16 16 75 1",
" 	c None",
".	c #E7E49F",
"+	c #E8E4A1",
"@	c #E9E5A3",
"#	c #E9E6A5",
"$	c #EAE6A7",
"%	c #EAE7A9",
"&	c #EBE8AB",
"*	c #ECE9AC",
"=	c #ECE9AE",
"-	c #EDEAB0",
";	c #EEEBB2",
">	c #EEECB4",
",	c #EFECB6",
"'	c #EFEDB7",
")	c #F0EEB9",
"!	c #E8E4A0",
"~	c #E8E4A2",
"{	c #EAE7A7",
"]	c #EBE7A9",
"^	c #ECE9AD",
"/	c #ECEAAE",
"(	c #EFEDB6",
"_	c #EFEDB8",
":	c #F0EEBA",
"<	c #F1EFBB",
"[	c #E9E5A4",
"}	c #E9E6A6",
"|	c #EDEAAF",
"1	c #EDEAB1",
"2	c #F1EFBC",
"3	c #F1F0BD",
"4	c #000000",
"5	c #EBE8AA",
"6	c #EDEBB1",
"7	c #EEEBB3",
"8	c #EEECB5",
"9	c #F0EEB8",
"0	c #E5D529",
"a	c #EFECB5",
"b	c #EDEBB2",
"c	c #EEECB3",
"d	c #F0EEBB",
"e	c #F1EFBD",
"f	c #F2F0BE",
"g	c #F0EFBB",
"h	c #F2F0BF",
"i	c #F2F1C1",
"j	c #F3F2C3",
"k	c #F4F2C5",
"l	c #F4F3C5",
"m	c #F5F4C8",
"n	c #F6F5CA",
"o	c #F5F4C9",
"p	c #F6F6CC",
"q	c #F6F6CD",
"r	c #F7F7CF",
"s	c #F3F1C2",
"t	c #F3F2C4",
"u	c #F4F3C6",
"v	c #F6F5CB",
"w	c #F8F7D1",
"x	c #F7F6CD",
"y	c #F8F8D1",
"z	c #F8F8D3",
"A	c #F5F5CA",
"B	c #F6F5CC",
"C	c #F7F7D0",
"D	c #F8F8D4",
"E	c #F4F3C7",
"F	c #F7F6CE",
"G	c #F8F8D2",
"H	c #F1F0BE",
"I	c #F2F0C0",
"J	c #F3F1C1",
"..+@#$%&*=-;>,')",
"!~@#{]&^/-;>(_:<",
"~[}{]&^|1;>(_:23",
"4445&^|678(9:444",
"4040=|67a'):2404",
"4440-bca')def444",
"&440;>,44gehi440",
"^/00>(4:04hijk00",
"|14>4_:03h04l4mn",
"6784444444444o0p",
"7a')0400004000qr",
"a')de40stu40vqrw",
"')geh40tum40xryz",
":<ehij0umAB0CyzD",
"23hijlEmnpFCGDDD",
"HIJjlEovpFCGDDDD"};
